<?xml version="1.0" encoding="UTF-8"?>
<svg version="1.1" xmlns="http://www.w3.org/2000/svg" width="512" height="512">
<path d="M0 0 C7.26 0 14.52 0 22 0 C22 20.13 22 40.26 22 61 C35.2 61 48.4 61 62 61 C62 54.07 62 47.14 62 40 C68.6 40 75.2 40 82 40 C82 26.8 82 13.6 82 0 C109.39 0 136.78 0 165 0 C165 26.73 165 53.46 165 81 C171.93 81 178.86 81 186 81 C186 88.26 186 95.52 186 103 C158.61 103 131.22 103 103 103 C103 95.74 103 88.48 103 81 C116.53 81 130.06 81 144 81 C144 67.8 144 54.6 144 41 C137.07 41 130.14 41 123 41 C123 34.4 123 27.8 123 21 C116.73 21 110.46 21 104 21 C104 27.6 104 34.2 104 41 C97.07 41 90.14 41 83 41 C83 47.93 83 54.86 83 62 C76.4 62 69.8 62 63 62 C63 68.6 63 75.2 63 82 C56.07 82 49.14 82 42 82 C42 88.6 42 95.2 42 102 C48.93 102 55.86 102 63 102 C63 115.53 63 129.06 63 143 C69.27 143 75.54 143 82 143 C82 136.07 82 129.14 82 122 C89.26 122 96.52 122 104 122 C104 129.26 104 136.52 104 144 C97.07 144 90.14 144 83 144 C83 157.53 83 171.06 83 185 C76.4 185 69.8 185 63 185 C63 191.27 63 197.54 63 204 C83.13 204 103.26 204 124 204 C124 210.93 124 217.86 124 225 C130.93 225 137.86 225 145 225 C145 231.93 145 238.86 145 246 C138.07 246 131.14 246 124 246 C124 259.2 124 272.4 124 286 C130.6 286 137.2 286 144 286 C144 279.4 144 272.8 144 266 C150.6 266 157.2 266 164 266 C164 259.07 164 252.14 164 245 C170.93 245 177.86 245 185 245 C185 238.73 185 232.46 185 226 C178.07 226 171.14 226 164 226 C164 219.07 164 212.14 164 205 C157.4 205 150.8 205 144 205 C144 191.14 144 177.28 144 163 C150.93 163 157.86 163 165 163 C165 176.53 165 190.06 165 204 C171.93 204 178.86 204 186 204 C186 210.93 186 217.86 186 225 C192.27 225 198.54 225 205 225 C205 218.07 205 211.14 205 204 C211.93 204 218.86 204 226 204 C226 197.73 226 191.46 226 185 C212.47 185 198.94 185 185 185 C185 177.74 185 170.48 185 163 C205.46 163 225.92 163 247 163 C247 176.86 247 190.72 247 205 C240.4 205 233.8 205 227 205 C227 211.6 227 218.2 227 225 C240.2 225 253.4 225 267 225 C267 218.07 267 211.14 267 204 C273.6 204 280.2 204 287 204 C287 190.47 287 176.94 287 163 C307.46 163 327.92 163 349 163 C349 170.26 349 177.52 349 185 C335.8 185 322.6 185 309 185 C309 191.27 309 197.54 309 204 C322.2 204 335.4 204 349 204 C349 224.79 349 245.58 349 267 C328.87 267 308.74 267 288 267 C288 273.27 288 279.54 288 286 C308.13 286 328.26 286 349 286 C349 306.79 349 327.58 349 349 C342.4 349 335.8 349 329 349 C329 355.27 329 361.54 329 368 C335.6 368 342.2 368 349 368 C349 375.26 349 382.52 349 390 C335.47 390 321.94 390 308 390 C308 376.47 308 362.94 308 349 C301.4 349 294.8 349 288 349 C288 355.6 288 362.2 288 369 C281.4 369 274.8 369 268 369 C268 375.6 268 382.2 268 389 C274.6 389 281.2 389 288 389 C288 395.6 288 402.2 288 409 C294.93 409 301.86 409 309 409 C309.0309375 414.1665625 309.0309375 414.1665625 309.0625 419.4375 C309.07615601 421.06836548 309.07615601 421.06836548 309.09008789 422.73217773 C309.09383423 424.00750366 309.09383423 424.00750366 309.09765625 425.30859375 C309.10551147 426.62041626 309.10551147 426.62041626 309.11352539 427.95874023 C309 430 309 430 308 431 C306.5112814 431.08669432 305.018555 431.10703494 303.52734375 431.09765625 C302.62822266 431.09443359 301.72910156 431.09121094 300.80273438 431.08789062 C299.85720703 431.07951172 298.91167969 431.07113281 297.9375 431.0625 C296.5134082 431.05573242 296.5134082 431.05573242 295.06054688 431.04882812 C292.70700469 431.03700128 290.35349468 431.01906521 288 431 C288 437.27 288 443.54 288 450 C294.93 450 301.86 450 309 450 C309.0309375 455.1665625 309.0309375 455.1665625 309.0625 460.4375 C309.07615601 462.06836548 309.07615601 462.06836548 309.09008789 463.73217773 C309.09383423 465.00750366 309.09383423 465.00750366 309.09765625 466.30859375 C309.10551147 467.62041626 309.10551147 467.62041626 309.11352539 468.95874023 C309 471 309 471 308 472 C306.43827255 472.08685603 304.87270656 472.10702219 303.30859375 472.09765625 C302.45837646 472.09515869 301.60815918 472.09266113 300.73217773 472.09008789 C299.10131226 472.07643188 299.10131226 472.07643188 297.4375 472.0625 C293.993125 472.041875 290.54875 472.02125 287 472 C287 465.07 287 458.14 287 451 C273.8 451 260.6 451 247 451 C247 457.6 247 464.2 247 471 C253.93 471 260.86 471 268 471 C268 477.6 268 484.2 268 491 C287.8 491 307.6 491 328 491 C328 470.87 328 450.74 328 430 C334.93 430 341.86 430 349 430 C349 457.06 349 484.12 349 512 C321.94 512 294.88 512 267 512 C267 505.4 267 498.8 267 492 C253.8 492 240.6 492 227 492 C227 498.6 227 505.2 227 512 C213.14 512 199.28 512 185 512 C185 505.07 185 498.14 185 491 C191.6 491 198.2 491 205 491 C205 477.8 205 464.6 205 451 C198.73 451 192.46 451 186 451 C186 457.93 186 464.86 186 472 C178.74 472 171.48 472 164 472 C164 465.07 164 458.14 164 451 C150.8 451 137.6 451 124 451 C124 457.93 124 464.86 124 472 C110.47 472 96.94 472 83 472 C83 478.6 83 485.2 83 492 C76.07 492 69.14 492 62 492 C62 485.07 62 478.14 62 471 C68.6 471 75.2 471 82 471 C82 464.4 82 457.8 82 451 C75.4 451 68.8 451 62 451 C62 437.47 62 423.94 62 410 C55.4 410 48.8 410 42 410 C42 423.53 42 437.06 42 451 C35.4 451 28.8 451 22 451 C22 457.93 22 464.86 22 472 C14.74 472 7.48 472 0 472 C0 451.21 0 430.42 0 409 C6.93 409 13.86 409 21 409 C21 402.4 21 395.8 21 389 C27.6 389 34.2 389 41 389 C41 382.4 41 375.8 41 369 C27.47 369 13.94 369 0 369 C0 362.4 0 355.8 0 349 C-20.13 349 -40.26 349 -61 349 C-61 342.07 -61 335.14 -61 328 C-67.6 328 -74.2 328 -81 328 C-81 334.93 -81 341.86 -81 349 C-87.93 349 -94.86 349 -102 349 C-102 342.07 -102 335.14 -102 328 C-108.93 328 -115.86 328 -123 328 C-123 314.14 -123 300.28 -123 286 C-116.07 286 -109.14 286 -102 286 C-102 266.2 -102 246.4 -102 226 C-108.6 226 -115.2 226 -122 226 C-122 239.53 -122 253.06 -122 267 C-128.6 267 -135.2 267 -142 267 C-142 294.06 -142 321.12 -142 349 C-148.93 349 -155.86 349 -163 349 C-163 308.08 -163 267.16 -163 225 C-149.8 225 -136.6 225 -123 225 C-123 218.07 -123 211.14 -123 204 C-115.74 204 -108.48 204 -101 204 C-101 210.93 -101 217.86 -101 225 C-94.73 225 -88.46 225 -82 225 C-82 211.8 -82 198.6 -82 185 C-95.53 185 -109.06 185 -123 185 C-123 177.74 -123 170.48 -123 163 C-102.21 163 -81.42 163 -60 163 C-60 169.93 -60 176.86 -60 184 C-53.73 184 -47.46 184 -41 184 C-41 177.07 -41 170.14 -41 163 C-33.74 163 -26.48 163 -19 163 C-19 169.93 -19 176.86 -19 184 C-12.73 184 -6.46 184 0 184 C0 156.94 0 129.88 0 102 C6.93 102 13.86 102 21 102 C21 88.8 21 75.6 21 62 C14.07 62 7.14 62 0 62 C0 41.54 0 21.08 0 0 Z M22 123 C22 136.2 22 149.4 22 163 C28.27 163 34.54 163 41 163 C41 149.8 41 136.6 41 123 C34.73 123 28.46 123 22 123 Z M42 164 C42 170.6 42 177.2 42 184 C48.6 184 55.2 184 62 184 C62 177.4 62 170.8 62 164 C55.4 164 48.8 164 42 164 Z M-40 185 C-40 191.27 -40 197.54 -40 204 C-33.4 204 -26.8 204 -20 204 C-20 197.73 -20 191.46 -20 185 C-26.6 185 -33.2 185 -40 185 Z M1 185 C1 198.2 1 211.4 1 225 C14.2 225 27.4 225 41 225 C41 211.8 41 198.6 41 185 C27.8 185 14.6 185 1 185 Z M-60 205 C-60 211.93 -60 218.86 -60 226 C-66.93 226 -73.86 226 -81 226 C-81 232.27 -81 238.54 -81 245 C-60.87 245 -40.74 245 -20 245 C-20 238.73 -20 232.46 -20 226 C-26.93 226 -33.86 226 -41 226 C-41 219.07 -41 212.14 -41 205 C-47.27 205 -53.54 205 -60 205 Z M63 226 C63 232.6 63 239.2 63 246 C49.47 246 35.94 246 22 246 C22 252.6 22 259.2 22 266 C41.8 266 61.6 266 82 266 C82 259.07 82 252.14 82 245 C95.53 245 109.06 245 123 245 C123 238.73 123 232.46 123 226 C103.2 226 83.4 226 63 226 Z M268 226 C268 239.2 268 252.4 268 266 C274.27 266 280.54 266 287 266 C287 259.07 287 252.14 287 245 C293.93 245 300.86 245 308 245 C308 238.73 308 232.46 308 226 C294.8 226 281.6 226 268 226 Z M186 246 C186 252.93 186 259.86 186 267 C179.07 267 172.14 267 165 267 C165 273.27 165 279.54 165 286 C178.2 286 191.4 286 205 286 C205 272.8 205 259.6 205 246 C198.73 246 192.46 246 186 246 Z M227 246 C227 252.6 227 259.2 227 266 C233.27 266 239.54 266 246 266 C246 259.4 246 252.8 246 246 C239.73 246 233.46 246 227 246 Z M-81 267 C-81 273.6 -81 280.2 -81 287 C-87.6 287 -94.2 287 -101 287 C-101 293.6 -101 300.2 -101 307 C-87.47 307 -73.94 307 -60 307 C-60 313.6 -60 320.2 -60 327 C-46.8 327 -33.6 327 -20 327 C-20 320.73 -20 314.46 -20 308 C-26.93 308 -33.86 308 -41 308 C-41 300.74 -41 293.48 -41 286 C-33.74 286 -26.48 286 -19 286 C-19 292.93 -19 299.86 -19 307 C0.8 307 20.6 307 41 307 C41 300.4 41 293.8 41 287 C34.4 287 27.8 287 21 287 C21 280.4 21 273.8 21 267 C-12.66 267 -46.32 267 -81 267 Z M83 267 C83 273.27 83 279.54 83 286 C89.6 286 96.2 286 103 286 C103 279.73 103 273.46 103 267 C96.4 267 89.8 267 83 267 Z M247 267 C247 273.27 247 279.54 247 286 C253.6 286 260.2 286 267 286 C267 279.73 267 273.46 267 267 C260.4 267 253.8 267 247 267 Z M63 287 C63 293.6 63 300.2 63 307 C69.27 307 75.54 307 82 307 C82 300.4 82 293.8 82 287 C75.73 287 69.46 287 63 287 Z M104 287 C104 300.2 104 313.4 104 327 C110.27 327 116.54 327 123 327 C123 313.8 123 300.6 123 287 C116.73 287 110.46 287 104 287 Z M206 287 C206 293.93 206 300.86 206 308 C192.47 308 178.94 308 165 308 C165 314.27 165 320.54 165 327 C185.13 327 205.26 327 226 327 C226 313.8 226 300.6 226 287 C219.4 287 212.8 287 206 287 Z M268 287 C268 300.2 268 313.4 268 327 C281.53 327 295.06 327 309 327 C309 333.93 309 340.86 309 348 C315.27 348 321.54 348 328 348 C328 334.8 328 321.6 328 308 C314.47 308 300.94 308 287 308 C287 301.07 287 294.14 287 287 C280.73 287 274.46 287 268 287 Z M1 328 C1 334.6 1 341.2 1 348 C21.13 348 41.26 348 62 348 C62 341.4 62 334.8 62 328 C41.87 328 21.74 328 1 328 Z M83 328 C83 334.6 83 341.2 83 348 C89.6 348 96.2 348 103 348 C103 341.4 103 334.8 103 328 C96.4 328 89.8 328 83 328 Z M124 349 C124 355.6 124 362.2 124 369 C110.47 369 96.94 369 83 369 C83 375.93 83 382.86 83 390 C76.4 390 69.8 390 63 390 C63 396.27 63 402.54 63 409 C76.2 409 89.4 409 103 409 C103 402.4 103 395.8 103 389 C116.53 389 130.06 389 144 389 C144 375.8 144 362.6 144 349 C137.4 349 130.8 349 124 349 Z M186 349 C186 368.8 186 388.6 186 409 C205.8 409 225.6 409 246 409 C246 389.2 246 369.4 246 349 C226.2 349 206.4 349 186 349 Z M145 390 C145 403.2 145 416.4 145 430 C151.27 430 157.54 430 164 430 C164 416.8 164 403.6 164 390 C157.73 390 151.46 390 145 390 Z M268 410 C268 416.6 268 423.2 268 430 C274.27 430 280.54 430 287 430 C287 423.4 287 416.8 287 410 C280.73 410 274.46 410 268 410 Z M83 431 C83 437.27 83 443.54 83 450 C96.2 450 109.4 450 123 450 C123 443.73 123 437.46 123 431 C109.8 431 96.6 431 83 431 Z M206 431 C206 437.27 206 443.54 206 450 C219.2 450 232.4 450 246 450 C246 443.73 246 437.46 246 431 C232.8 431 219.6 431 206 431 Z " fill="#000000" transform="translate(163,0)"/>
<path d="M0 0 C47.52 0 95.04 0 144 0 C144 47.52 144 95.04 144 144 C96.48 144 48.96 144 0 144 C0 96.48 0 48.96 0 0 Z M21 22 C21 55.33 21 88.66 21 123 C54.33 123 87.66 123 122 123 C122 89.67 122 56.34 122 22 C88.67 22 55.34 22 21 22 Z " fill="#000000" transform="translate(0,368)"/>
<path d="M0 0 C47.52 0 95.04 0 144 0 C144 47.52 144 95.04 144 144 C96.48 144 48.96 144 0 144 C0 96.48 0 48.96 0 0 Z M22 21 C22 54.33 22 87.66 22 122 C55.33 122 88.66 122 123 122 C123 88.67 123 55.34 123 21 C89.67 21 56.34 21 22 21 Z " fill="#000000" transform="translate(368,0)"/>
<path d="M0 0 C47.52 0 95.04 0 144 0 C144 47.52 144 95.04 144 144 C96.48 144 48.96 144 0 144 C0 96.48 0 48.96 0 0 Z M21 21 C21 54.33 21 87.66 21 122 C54.33 122 87.66 122 122 122 C122 88.67 122 55.34 122 21 C88.67 21 55.34 21 21 21 Z " fill="#000000" transform="translate(0,0)"/>
<path d="M0 0 C20.79 0 41.58 0 63 0 C63 20.79 63 41.58 63 63 C47.6859375 63.0309375 47.6859375 63.0309375 32.0625 63.0625 C28.83476807 63.071604 25.60703613 63.08070801 22.28149414 63.09008789 C19.7410486 63.09300676 17.2006026 63.09555539 14.66015625 63.09765625 C13.99592148 63.10026962 13.33168671 63.102883 12.64732361 63.10557556 C10.69987143 63.11285688 8.75239742 63.1133384 6.80493164 63.11352539 C5.70572891 63.115746 4.60652618 63.11796661 3.47401428 63.12025452 C1 63 1 63 0 62 C-0.09396057 60.06693502 -0.11743517 58.13041162 -0.11352539 56.19506836 C-0.11340454 54.93641968 -0.11328369 53.677771 -0.11315918 52.38098145 C-0.10812272 51.03393505 -0.10295608 49.68688913 -0.09765625 48.33984375 C-0.09664917 47.12204224 -0.09564209 45.90424072 -0.09460449 44.64953613 C-0.08935295 40.07884791 -0.07539185 35.50817306 -0.0625 30.9375 C-0.041875 20.728125 -0.02125 10.51875 0 0 Z " fill="#000000" transform="translate(40,409)"/>
<path d="M0 0 C15.3140625 -0.0309375 15.3140625 -0.0309375 30.9375 -0.0625 C35.7790979 -0.07615601 35.7790979 -0.07615601 40.71850586 -0.09008789 C43.2589514 -0.09300676 45.7993974 -0.09555539 48.33984375 -0.09765625 C49.00407852 -0.10026962 49.66831329 -0.102883 50.35267639 -0.10557556 C52.30012857 -0.11285688 54.24760258 -0.1133384 56.19506836 -0.11352539 C57.29427109 -0.115746 58.39347382 -0.11796661 59.52598572 -0.12025452 C62 0 62 0 63 1 C63.09396057 2.93306498 63.11743517 4.86958838 63.11352539 6.80493164 C63.11340454 8.06358032 63.11328369 9.322229 63.11315918 10.61901855 C63.10812272 11.96606495 63.10295608 13.31311087 63.09765625 14.66015625 C63.09664917 15.87795776 63.09564209 17.09575928 63.09460449 18.35046387 C63.08935295 22.92115209 63.07539185 27.49182694 63.0625 32.0625 C63.041875 42.271875 63.02125 52.48125 63 63 C42.21 63 21.42 63 0 63 C0 42.21 0 21.42 0 0 Z " fill="#000000" transform="translate(409,40)"/>
<path d="M0 0 C1.09920273 0.00222061 2.19840546 0.00444122 3.33091736 0.00672913 C4.58956604 0.00684998 5.84821472 0.00697083 7.14500427 0.00709534 C8.49205067 0.0121318 9.83909658 0.01729844 11.18614197 0.02259827 C12.40394348 0.02360535 13.621745 0.02461243 14.87644958 0.02565002 C19.44713781 0.03090157 24.01781266 0.04486267 28.58848572 0.05775452 C38.79786072 0.07837952 49.00723572 0.09900452 59.52598572 0.12025452 C59.52598572 20.91025452 59.52598572 41.70025452 59.52598572 63.12025452 C38.73598572 63.12025452 17.94598572 63.12025452 -3.47401428 63.12025452 C-3.49463928 52.91087952 -3.51526428 42.70150452 -3.53651428 32.18275452 C-3.54561829 28.95502258 -3.55472229 25.72729065 -3.56410217 22.40174866 C-3.56702105 19.86130312 -3.56956967 17.32085711 -3.57167053 14.78041077 C-3.57428391 14.11617599 -3.57689728 13.45194122 -3.57958984 12.76757812 C-3.58687116 10.82012594 -3.58735269 8.87265194 -3.58753967 6.92518616 C-3.58976028 5.82598343 -3.5919809 4.7267807 -3.5942688 3.5942688 C-3.43220565 0.26011918 -3.33414962 0.16206315 0 0 Z " fill="#000000" transform="translate(43.47401428222656,39.87974548339844)"/>
<path d="M0 0 C13.86 0 27.72 0 42 0 C42 6.93 42 13.86 42 21 C28.14 21 14.28 21 0 21 C0 14.07 0 7.14 0 0 Z " fill="#000000" transform="translate(286,491)"/>
<path d="M0 0 C7.26 0 14.52 0 22 0 C22 7.26 22 14.52 22 22 C14.74 22 7.48 22 0 22 C0 14.74 0 7.48 0 0 Z " fill="#000000" transform="translate(368,368)"/>
<path d="M0 0 C7.26 0 14.52 0 22 0 C22 7.26 22 14.52 22 22 C14.74 22 7.48 22 0 22 C0 14.74 0 7.48 0 0 Z " fill="#000000" transform="translate(327,122)"/>
<path d="M0 0 C7.26 0 14.52 0 22 0 C22 7.26 22 14.52 22 22 C14.74 22 7.48 22 0 22 C0 14.74 0 7.48 0 0 Z " fill="#000000" transform="translate(286,122)"/>
<path d="M0 0 C6.93 0 13.86 0 21 0 C21 7.26 21 14.52 21 22 C14.07 22 7.14 22 0 22 C0 14.74 0 7.48 0 0 Z " fill="#000000" transform="translate(266,163)"/>
<path d="M0 0 C7.26 0 14.52 0 22 0 C22 6.93 22 13.86 22 21 C14.74 21 7.48 21 0 21 C0 14.07 0 7.14 0 0 Z " fill="#000000" transform="translate(204,0)"/>
</svg>
